HIERARCHY
ROOT Root
{
  OFFSET 0.0 0.0 0.0
  CHANNELS 6 Xposition Yposition Zposition Zrotation Yrotation Xrotation
  JOINT Hips
  {
    OFFSET 0.0 100.0 0.0
    CHANNELS 6 Xposition Yposition Zposition Zrotation Yrotation Xrotation
    JOINT Spine1
    {
      OFFSET 5.003913 -0.037094 -0.013727
      CHANNELS 3 Zrotation Yrotation Xrotation
      JOINT Spine2
      {
        OFFSET 7.125363 -1e-06 0.0
        CHANNELS 3 Zrotation Yrotation Xrotation
        JOINT Chest
        {
          OFFSET 7.594027 1e-06 0.0
          CHANNELS 3 Zrotation Yrotation Xrotation
          JOINT Neck1
          {
            OFFSET 26.313086 -0.460272 -0.181672
            CHANNELS 3 Zrotation Yrotation Xrotation
            JOINT Neck2
            {
              OFFSET 8.045911 0.0 0.0
              CHANNELS 3 Zrotation Yrotation Xrotation
              JOINT Head
              {
                OFFSET 6.432774 0.0 0.0
                CHANNELS 3 Zrotation Yrotation Xrotation
                JOINT HeadEnd
                {
                  OFFSET 16.169773 0.06451 0.00362
                  CHANNELS 3 Zrotation Yrotation Xrotation
                }
                JOINT Jaw
                {
                  OFFSET 0.108741 3.12938 0.002639
                  CHANNELS 3 Zrotation Yrotation Xrotation
                }
                JOINT LeftEye
                {
                  OFFSET 4.45173 8.166359 3.206392
                  CHANNELS 3 Zrotation Yrotation Xrotation
                }
                JOINT RightEye
                {
                  OFFSET 4.436895 8.135758 -3.222429
                  CHANNELS 3 Zrotation Yrotation Xrotation
                }
              }
            }
          }
          JOINT LeftShoulder
          {
            OFFSET 23.218927 5.195579 1.621656
            CHANNELS 3 Zrotation Yrotation Xrotation
            JOINT LeftArm
            {
              OFFSET 15.902118 2e-06 -2e-06
              CHANNELS 3 Zrotation Yrotation Xrotation
              JOINT LeftForeArm
              {
                OFFSET 28.739307 0.0 -1e-06
                CHANNELS 3 Zrotation Yrotation Xrotation
                JOINT LeftHand
                {
                  OFFSET 27.093981 -4e-06 0.0
                  CHANNELS 3 Zrotation Yrotation Xrotation
                  JOINT LeftHandThumb1
                  {
                    OFFSET 2.276781 3.380274 0.83384
                    CHANNELS 3 Zrotation Yrotation Xrotation
                    JOINT LeftHandThumb2
                    {
                      OFFSET 4.705309 -1e-06 -1e-06
                      CHANNELS 3 Zrotation Yrotation Xrotation
                      JOINT LeftHandThumb3
                      {
                        OFFSET 2.798515 0.0 3e-06
                        CHANNELS 3 Zrotation Yrotation Xrotation
                        JOINT LeftHandThumbEnd
                        {
                          OFFSET 3.180793 4e-06 -4e-06
                          CHANNELS 3 Zrotation Yrotation Xrotation
                        }
                      }
                    }
                  }
                  JOINT LeftHandIndex1
                  {
                    OFFSET 3.247786 2.352677 0.137192
                    CHANNELS 3 Zrotation Yrotation Xrotation
                    JOINT LeftHandIndex2
                    {
                      OFFSET 6.367095 1e-06 0.0
                      CHANNELS 3 Zrotation Yrotation Xrotation
                      JOINT LeftHandIndex3
                      {
                        OFFSET 3.662364 0.0 0.0
                        CHANNELS 3 Zrotation Yrotation Xrotation
                        JOINT LeftHandIndex4
                        {
                          OFFSET 2.329242 4e-06 -4e-06
                          CHANNELS 3 Zrotation Yrotation Xrotation
                          JOINT LeftHandIndexEnd
                          {
                            OFFSET 2.767823 1e-06 0.0
                            CHANNELS 3 Zrotation Yrotation Xrotation
                          }
                        }
                      }
                    }
                  }
                  JOINT LeftHandMiddle1
                  {
                    OFFSET 3.163612 0.945023 -0.406112
                    CHANNELS 3 Zrotation Yrotation Xrotation
                    JOINT LeftHandMiddle2
                    {
                      OFFSET 6.276789 3e-06 0.0
                      CHANNELS 3 Zrotation Yrotation Xrotation
                      JOINT LeftHandMiddle3
                      {
                        OFFSET 4.35652 -1e-06 4e-06
                        CHANNELS 3 Zrotation Yrotation Xrotation
                        JOINT LeftHandMiddle4
                        {
                          OFFSET 2.996877 0.0 8e-06
                          CHANNELS 3 Zrotation Yrotation Xrotation
                          JOINT LeftHandMiddleEnd
                          {
                            OFFSET 2.323256 3e-06 -4e-06
                            CHANNELS 3 Zrotation Yrotation Xrotation
                          }
                        }
                      }
                    }
                  }
                  JOINT LeftHandRing1
                  {
                    OFFSET 2.882606 -0.309162 0.107445
                    CHANNELS 3 Zrotation Yrotation Xrotation
                    JOINT LeftHandRing2
                    {
                      OFFSET 6.033198 0.0 4e-06
                      CHANNELS 3 Zrotation Yrotation Xrotation
                      JOINT LeftHandRing3
                      {
                        OFFSET 4.350578 3e-06 0.0
                        CHANNELS 3 Zrotation Yrotation Xrotation
                        JOINT LeftHandRing4
                        {
                          OFFSET 2.651321 2e-06 -7e-06
                          CHANNELS 3 Zrotation Yrotation Xrotation
                          JOINT LeftHandRingEnd
                          {
                            OFFSET 1.937663 1e-06 -4e-06
                            CHANNELS 3 Zrotation Yrotation Xrotation
                          }
                        }
                      }
                    }
                  }
                  JOINT LeftHandPinky1
                  {
                    OFFSET 2.865315 -1.525436 0.575687
                    CHANNELS 3 Zrotation Yrotation Xrotation
                    JOINT LeftHandPinky2
                    {
                      OFFSET 5.54936 1e-06 -8e-06
                      CHANNELS 3 Zrotation Yrotation Xrotation
                      JOINT LeftHandPinky3
                      {
                        OFFSET 3.070974 0.0 -4e-06
                        CHANNELS 3 Zrotation Yrotation Xrotation
                        JOINT LeftHandPinky4
                        {
                          OFFSET 1.549672 1e-06 0.0
                          CHANNELS 3 Zrotation Yrotation Xrotation
                          JOINT LeftHandPinkyEnd
                          {
                            OFFSET 1.952123 0.0 0.0
                            CHANNELS 3 Zrotation Yrotation Xrotation
                          }
                        }
                      }
                    }
                  }
                }
              }
            }
          }
          JOINT RightShoulder
          {
            OFFSET 23.161716 5.296122 -1.380114
            CHANNELS 3 Zrotation Yrotation Xrotation
            JOINT RightArm
            {
              OFFSET -16.027195 -2e-06 1.1e-05
              CHANNELS 3 Zrotation Yrotation Xrotation
              JOINT RightForeArm
              {
                OFFSET -28.736639 4e-06 2e-06
                CHANNELS 3 Zrotation Yrotation Xrotation
                JOINT RightHand
                {
                  OFFSET -27.133619 6e-06 0.0
                  CHANNELS 3 Zrotation Yrotation Xrotation
                  JOINT RightHandThumb1
                  {
                    OFFSET -2.274328 -3.351035 -0.83067
                    CHANNELS 3 Zrotation Yrotation Xrotation
                    JOINT RightHandThumb2
                    {
                      OFFSET -4.703594 -3e-06 2e-06
                      CHANNELS 3 Zrotation Yrotation Xrotation
                      JOINT RightHandThumb3
                      {
                        OFFSET -2.794935 -4e-06 -3e-06
                        CHANNELS 3 Zrotation Yrotation Xrotation
                        JOINT RightHandThumbEnd
                        {
                          OFFSET -3.183852 4e-06 1e-06
                          CHANNELS 3 Zrotation Yrotation Xrotation
                        }
                      }
                    }
                  }
                  JOINT RightHandIndex1
                  {
                    OFFSET -3.253496 -2.33755 -0.127667
                    CHANNELS 3 Zrotation Yrotation Xrotation
                    JOINT RightHandIndex2
                    {
                      OFFSET -6.344434 0.0 0.0
                      CHANNELS 3 Zrotation Yrotation Xrotation
                      JOINT RightHandIndex3
                      {
                        OFFSET -3.654871 0.0 -8e-06
                        CHANNELS 3 Zrotation Yrotation Xrotation
                        JOINT RightHandIndex4
                        {
                          OFFSET -2.327586 -1e-06 0.0
                          CHANNELS 3 Zrotation Yrotation Xrotation
                          JOINT RightHandIndexEnd
                          {
                            OFFSET -2.770001 3e-06 8e-06
                            CHANNELS 3 Zrotation Yrotation Xrotation
                          }
                        }
                      }
                    }
                  }
                  JOINT RightHandMiddle1
                  {
                    OFFSET -3.168223 -0.944764 0.411762
                    CHANNELS 3 Zrotation Yrotation Xrotation
                    JOINT RightHandMiddle2
                    {
                      OFFSET -6.266691 -1e-06 -4e-06
                      CHANNELS 3 Zrotation Yrotation Xrotation
                      JOINT RightHandMiddle3
                      {
                        OFFSET -4.348901 0.0 0.0
                        CHANNELS 3 Zrotation Yrotation Xrotation
                        JOINT RightHandMiddle4
                        {
                          OFFSET -3.00024 2e-06 -4e-06
                          CHANNELS 3 Zrotation Yrotation Xrotation
                          JOINT RightHandMiddleEnd
                          {
                            OFFSET -2.321477 -4e-06 -4e-06
                            CHANNELS 3 Zrotation Yrotation Xrotation
                          }
                        }
                      }
                    }
                  }
                  JOINT RightHandRing1
                  {
                    OFFSET -2.885654 0.293261 -0.119232
                    CHANNELS 3 Zrotation Yrotation Xrotation
                    JOINT RightHandRing2
                    {
                      OFFSET -6.032835 -1e-06 -4e-06
                      CHANNELS 3 Zrotation Yrotation Xrotation
                      JOINT RightHandRing3
                      {
                        OFFSET -4.33881 0.0 -4e-06
                        CHANNELS 3 Zrotation Yrotation Xrotation
                        JOINT RightHandRing4
                        {
                          OFFSET -2.654903 -4e-06 -4e-06
                          CHANNELS 3 Zrotation Yrotation Xrotation
                          JOINT RightHandRingEnd
                          {
                            OFFSET -1.935122 0.0 4e-06
                            CHANNELS 3 Zrotation Yrotation Xrotation
                          }
                        }
                      }
                    }
                  }
                  JOINT RightHandPinky1
                  {
                    OFFSET -2.866241 1.503904 -0.60527
                    CHANNELS 3 Zrotation Yrotation Xrotation
                    JOINT RightHandPinky2
                    {
                      OFFSET -5.553177 -2e-06 0.0
                      CHANNELS 3 Zrotation Yrotation Xrotation
                      JOINT RightHandPinky3
                      {
                        OFFSET -3.062664 -1e-06 -4e-06
                        CHANNELS 3 Zrotation Yrotation Xrotation
                        JOINT RightHandPinky4
                        {
                          OFFSET -1.546529 2e-06 4e-06
                          CHANNELS 3 Zrotation Yrotation Xrotation
                          JOINT RightHandPinkyEnd
                          {
                            OFFSET -1.952341 0.0 -4e-06
                            CHANNELS 3 Zrotation Yrotation Xrotation
                          }
                        }
                      }
                    }
                  }
                }
              }
            }
          }
        }
      }
    }
    JOINT LeftLeg
    {
      OFFSET -8.443107 2.567604 10.043214
      CHANNELS 3 Zrotation Yrotation Xrotation
      JOINT LeftShin
      {
        OFFSET 43.229198 1e-06 -1e-06
        CHANNELS 3 Zrotation Yrotation Xrotation
        JOINT LeftFoot
        {
          OFFSET 42.298611 1e-06 1e-06
          CHANNELS 3 Zrotation Yrotation Xrotation
          JOINT LeftToeBase
          {
            OFFSET 14.165858 1e-06 0.0
            CHANNELS 3 Zrotation Yrotation Xrotation
            JOINT LeftToeEnd
            {
              OFFSET 6.7141 -0.234461 0.0
              CHANNELS 3 Zrotation Yrotation Xrotation
            }
          }
        }
      }
    }
    JOINT RightLeg
    {
      OFFSET -8.303923 2.592729 -10.047278
      CHANNELS 3 Zrotation Yrotation Xrotation
      JOINT RightShin
      {
        OFFSET -43.369682 0.0 1e-06
        CHANNELS 3 Zrotation Yrotation Xrotation
        JOINT RightFoot
        {
          OFFSET -42.260784 4e-06 2e-06
          CHANNELS 3 Zrotation Yrotation Xrotation
          JOINT RightToeBase
          {
            OFFSET -14.222245 -2e-06 -1e-06
            CHANNELS 3 Zrotation Yrotation Xrotation
            JOINT RightToeEnd
            {
              OFFSET -6.660062 0.232574 -2e-06
              CHANNELS 3 Zrotation Yrotation Xrotation
            }
          }
        }
      }
    }
  }
}
MOTION
Frames: 4
Frame Time: 0.03333333333333333
0.0 0.0 0.0 0.0 -0.0 0.0 1.114018 100.097061 2.305126 91.466637 -6.483469 88.390137 -2.496337 -0.805692 -0.491585 -11.769273 -0.549456 -0.089171 6.976771 2.426815 -2.675252 -9.132513 1.576763 1.670731 -2.674612 -0.594621 1.932957 -46.327961 0.600905 -1.342692 7e-06 0.0 0.0 0.022722 -0.120715 -0.037588 0.68184 -0.283924 0.101455 0.55614 0.050527 -0.163733 -24.349113 -62.871948 32.131088 -11.250118 10.693602 -70.622902 21.027826 -1.35668 -1.242401 -5.097337 21.299589 -30.268045 17.636631 -26.322741 52.411205 -19.46666 -14.395597 29.410389 -0.0 -8.774819 -2e-06 16.200796 -17.186554 5.659549 -0.609777 -1.795653 -3.889327 -4.807088 -11.046809 -2.93785 3e-06 -20.976015 2e-06 -5.019971 -25.033556 -4.031878 8e-06 -2e-06 -0.0 -10.634535 -5.686968 -3.565587 10.573272 -17.922951 -3.1139 1e-06 -13.821209 2e-06 -0.501778 -31.181505 -4.027014 -12.109337 -59.500141 8.410883 -13.982712 -7.150196 -2.875042 13.77273 -8.401493 -3.218241 0.347731 -34.211555 0.771657 -0.96303 -17.73337 2.621021 -0.0 -2e-06 1e-06 -17.346415 -20.095217 -4.201782 21.757555 -1.638375 3.866428 1e-06 -6.338823 1e-06 -1.697588 -22.591745 -6.194006 -0.0 -3e-06 -2e-06 157.519867 -70.585442 28.317858 -12.859073 12.701491 -66.872391 22.475418 0.053578 0.318998 -6.760908 9.438461 -33.628506 22.182116 -20.375898 49.933327 -16.701811 -16.743526 28.476528 -3e-06 -12.690599 -2e-06 16.247784 -16.333223 2.367789 -0.105921 -1.513855 -4.275881 -5.039042 -5.612873 -2.953557 7e-06 -11.020525 -1e-06 -6.111297 -15.895334 -3.84047 -1e-06 1e-06 0.0 -10.283373 -5.680287 -4.341839 11.028297 -11.302407 -2.372633 -1.384271 -14.238582 -6.320121 -0.625437 -26.924196 -3.827603 -4.68144 -49.229374 -3.145028 -13.708526 -7.363476 -3.72094 18.141151 -14.052742 -3.242673 7e-06 -18.787271 -1e-06 -0.429711 -8.456045 2.555502 1e-06 0.0 0.0 -15.923536 -20.094482 -5.473585 30.419207 -7.190826 1.735928 5e-06 -8.162927 -0.0 -1.861906 -22.861473 -6.167939 1e-06 -3e-06 -2e-06 177.551559 -2.876117 -3.504982 5.971224 -0.04999 0.224056 -78.961037 2.451973 -8.210293 -5.316618 1.621581 2.183909 -1.0 0.0 0.0 -0.215516 -10.1893 -16.966881 5.649405 0.012188 -0.062509 -76.369949 6.64387 -10.696395 -4.623889 0.777004 1.728472 -1.000002 -0.0 -0.0 
0.0 0.0 0.0 0.0 -0.0 0.0 1.180564 100.074997 2.346716 91.505882 -6.404846 88.362335 -2.53729 -0.809529 -0.46777 -11.796698 -0.52874 -0.087097 6.998271 2.43209 -2.651618 -9.188237 1.613927 1.624515 -2.676018 -0.604049 1.934515 -46.146687 0.59731 -1.316854 5e-06 0.0 0.0 0.025359 -0.108008 -0.028028 0.682795 -0.262364 0.111185 0.557927 0.054094 -0.153776 -24.226133 -62.842892 31.976631 -11.001185 10.586875 -70.473114 21.215927 -1.307395 -1.236562 -4.979783 21.200794 -29.789333 17.636633 -26.322737 52.411194 -19.46666 -14.395594 29.410389 -1e-06 -8.774821 -3e-06 16.145008 -17.213661 5.696002 -0.609776 -1.795653 -3.889327 -4.807088 -11.046811 -2.93785 4e-06 -20.976019 3e-06 -5.019972 -25.03356 -4.031878 6e-06 -1e-06 1e-06 -10.634533 -5.686971 -3.565587 10.573272 -17.922953 -3.113899 3e-06 -13.821211 2e-06 -0.501778 -31.181501 -4.027012 -12.123114 -59.509098 8.424683 -13.982716 -7.150198 -2.875041 13.772731 -8.401493 -3.218241 0.347735 -34.211555 0.771656 -0.963028 -17.733372 2.62102 -0.0 -1e-06 0.0 -17.346416 -20.095215 -4.20178 21.757555 -1.638376 3.866428 2e-06 -6.338824 1e-06 -1.697591 -22.591747 -6.194004 0.0 -3e-06 -2e-06 157.345383 -70.582993 28.390614 -12.545892 12.904516 -66.481056 22.760483 -0.024576 0.295067 -6.635586 9.487576 -33.143505 22.182114 -20.375895 49.933308 -16.701809 -16.743528 28.476522 -3e-06 -12.690601 -1e-06 16.197412 -16.2759 2.374976 -0.105918 -1.513858 -4.275881 -5.039041 -5.61287 -2.953556 6e-06 -11.020523 -2e-06 -6.111295 -15.89533 -3.840469 -2e-06 1e-06 -1e-06 -10.283367 -5.680288 -4.341836 11.028296 -11.302403 -2.372633 -1.384269 -14.238579 -6.320119 -0.625437 -26.924187 -3.8276 -4.70941 -49.209721 -3.140136 -13.708523 -7.363475 -3.720938 18.141146 -14.052738 -3.242673 8e-06 -18.787266 -1e-06 -0.429712 -8.456042 2.555502 0.0 0.0 1e-06 -15.923531 -20.094481 -5.473583 30.419207 -7.190826 1.735925 4e-06 -8.162926 -0.0 -1.861903 -22.861467 -6.167939 -1e-06 -3e-06 -1e-06 177.677246 -2.801254 -3.538324 5.98552 -0.052289 0.225036 -79.022842 2.465347 -8.179252 -5.294319 1.634501 2.184556 -1.0 0.0 -0.0 -0.111765 -10.295164 -16.985765 5.685584 0.01301 -0.050494 -76.431503 6.680688 -10.70705 -4.677383 0.777446 1.724077 -1.000003 0.0 0.0 
0.0 0.0 0.0 0.0 -0.0 0.0 1.246771 100.062515 2.381442 91.539085 -6.32305 88.364357 -2.577172 -0.820934 -0.463576 -11.839024 -0.50565 -0.100115 7.022599 2.432271 -2.609283 -9.198354 1.652283 1.592168 -2.667881 -0.614725 1.955004 -45.996723 0.550234 -1.271903 6e-06 0.0 0.0 0.029854 -0.096097 -0.0194 0.687869 -0.243849 0.117202 0.565717 0.058922 -0.142866 -24.016279 -62.795673 31.736235 -10.732375 10.409022 -70.25174 21.398487 -1.289244 -1.218243 -4.795587 21.081953 -29.199179 17.636633 -26.322741 52.411213 -19.466665 -14.395598 29.410398 0.0 -8.774823 -2e-06 16.083527 -17.242779 5.727785 -0.609776 -1.795654 -3.889328 -4.807088 -11.046814 -2.937852 2e-06 -20.976021 -0.0 -5.019972 -25.033564 -4.031882 7e-06 -2e-06 1e-06 -10.634537 -5.686974 -3.565588 10.573275 -17.922955 -3.113903 1e-06 -13.821212 0.0 -0.501777 -31.181511 -4.027019 -12.141982 -59.481121 8.428513 -13.982718 -7.150201 -2.875041 13.772734 -8.401495 -3.218243 0.347731 -34.211563 0.771654 -0.963028 -17.733376 2.621019 -1e-06 0.0 0.0 -17.346422 -20.095224 -4.201782 21.757561 -1.638375 3.866428 0.0 -6.338825 0.0 -1.69759 -22.591755 -6.194009 0.0 -5e-06 -3e-06 157.391022 -70.548935 28.288353 -12.239728 12.994883 -66.047173 23.021414 -0.093951 0.272933 -6.542858 9.514235 -32.704418 22.182114 -20.375904 49.933327 -16.701813 -16.743534 28.47654 -2e-06 -12.690603 -0.0 16.182022 -16.251112 2.358349 -0.105918 -1.513857 -4.275883 -5.039043 -5.612872 -2.953556 5e-06 -11.020527 -1e-06 -6.1113 -15.895334 -3.84047 -2e-06 0.0 -0.0 -10.283372 -5.680289 -4.341839 11.028294 -11.302407 -2.372633 -1.384268 -14.238583 -6.320122 -0.625441 -26.924187 -3.827601 -4.737714 -49.19059 -3.12415 -13.708527 -7.363478 -3.720939 18.141151 -14.05274 -3.242675 6e-06 -18.787275 -0.0 -0.429712 -8.456046 2.555505 1e-06 -1e-06 0.0 -15.923536 -20.094486 -5.473585 30.419218 -7.190826 1.735925 3e-06 -8.162929 -0.0 -1.861906 -22.861475 -6.167942 2e-06 -4e-06 -1e-06 177.776215 -2.738475 -3.551634 6.043739 -0.051165 0.217433 -79.076668 2.481032 -8.128674 -5.248292 1.639593 2.183952 -1.0 -0.0 0.0 -0.011071 -10.402178 -17.066416 5.746492 0.016258 -0.042477 -76.456963 6.777949 -10.718665 -4.699337 0.779196 1.720503 -1.000002 -0.0 -0.0 
0.0 0.0 0.0 0.0 -0.0 0.0 1.311971 100.061485 2.405945 91.572945 -6.256837 88.380646 -2.620934 -0.844387 -0.478948 -11.878059 -0.495536 -0.125963 7.042966 2.422719 -2.562192 -9.209123 1.710409 1.557477 -2.658195 -0.623002 1.994039 -45.899044 0.499757 -1.205291 5e-06 -0.0 0.0 0.033467 -0.097418 -0.019024 0.68628 -0.240985 0.113943 0.566814 0.052805 -0.140046 -23.850639 -62.747864 31.552738 -10.48094 10.224149 -70.097015 21.572855 -1.311546 -1.209772 -4.602783 20.959211 -28.664228 17.636625 -26.32272 52.411182 -19.466663 -14.395594 29.410389 -0.0 -8.774818 -2e-06 16.035021 -17.270998 5.753197 -0.609779 -1.795654 -3.889327 -4.807089 -11.046809 -2.937851 4e-06 -20.976015 -1e-06 -5.019968 -25.033554 -4.031884 7e-06 0.0 1e-06 -10.634533 -5.686973 -3.565587 10.573275 -17.922951 -3.113903 2e-06 -13.821208 0.0 -0.501773 -31.181501 -4.027018 -12.17705 -59.442741 8.458146 -13.982714 -7.150199 -2.87504 13.772731 -8.40149 -3.218242 0.347736 -34.211544 0.771651 -0.963026 -17.733366 2.621018 -0.0 -1e-06 1e-06 -17.346416 -20.095217 -4.20178 21.757557 -1.638374 3.866427 1e-06 -6.338822 0.0 -1.697589 -22.591742 -6.194008 1e-06 -3e-06 -2e-06 157.572052 -70.541718 28.070412 -11.946907 13.042505 -65.596436 23.211866 -0.157829 0.273242 -6.508597 9.544832 -32.304218 22.182112 -20.375885 49.933308 -16.701813 -16.743526 28.476528 -2e-06 -12.690601 -1e-06 16.192423 -16.267862 2.337358 -0.105917 -1.513857 -4.275881 -5.039044 -5.612871 -2.953556 7e-06 -11.020524 -3e-06 -6.111297 -15.895334 -3.840471 -1e-06 0.0 -1e-06 -10.283371 -5.680289 -4.341838 11.028296 -11.302404 -2.372634 -1.384268 -14.238581 -6.320122 -0.625438 -26.924187 -3.827604 -4.783447 -49.196934 -3.072545 -13.708522 -7.363478 -3.72094 18.141146 -14.052739 -3.242675 9e-06 -18.78727 -4e-06 -0.429715 -8.456045 2.555501 2e-06 0.0 1e-06 -15.923532 -20.094482 -5.473585 30.41921 -7.190825 1.735926 4e-06 -8.162926 -1e-06 -1.861903 -22.861469 -6.167942 1e-06 -2e-06 -1e-06 177.831955 -2.678605 -3.53854 6.134935 -0.049234 0.200772 -79.124222 2.480707 -8.102955 -5.211126 1.630315 2.182678 -0.999998 0.0 0.0 0.066098 -10.496862 -17.155319 5.816302 0.016372 -0.038724 -76.449715 6.861351 -10.754391 -4.689509 0.781964 1.718976 -1.000002 -0.0 0.0 
